<?xml version="1.0" encoding="UTF-8" standalone="no"?>
<!DOCTYPE svg PUBLIC "-//W3C//DTD SVG 1.1//EN"
 "http://www.w3.org/Graphics/SVG/1.1/DTD/svg11.dtd">
<!-- Generated by graphviz version 2.28.0 (20110507.0327)
 -->
<!-- Title: G Pages: 1 -->
<svg width="796pt" height="1514pt"
 viewBox="0.00 0.00 796.00 1514.00" xmlns="http://www.w3.org/2000/svg" xmlns:xlink="http://www.w3.org/1999/xlink">
<g id="graph1" class="graph" transform="scale(1 1) rotate(0) translate(4 1510)">
<title>G</title>
<polygon fill="white" stroke="white" points="-4,5 -4,-1510 793,-1510 793,5 -4,5"/>
<g id="graph2" class="cluster"><title>cluster_TangoCard</title>
<polyline fill="none" stroke="gray" points="20,-44 768,-44 "/>
<path fill="none" stroke="gray" d="M768,-44C774,-44 780,-50 780,-56"/>
<polyline fill="none" stroke="gray" points="780,-56 780,-1352 "/>
<path fill="none" stroke="gray" d="M780,-1352C780,-1358 774,-1364 768,-1364"/>
<polyline fill="none" stroke="gray" points="768,-1364 20,-1364 "/>
<path fill="none" stroke="gray" d="M20,-1364C14,-1364 8,-1358 8,-1352"/>
<polyline fill="none" stroke="gray" points="8,-1352 8,-56 "/>
<path fill="none" stroke="gray" d="M8,-56C8,-50 14,-44 20,-44"/>
<text text-anchor="middle" x="394" y="-1351.2" font-family="Times New Roman,serif" font-size="11.00" fill="gray">TangoCard</text>
</g>
<g id="graph3" class="cluster"><title>cluster_TangoCard\Sdk</title>
<polyline fill="none" stroke="gray" points="28,-52 760,-52 "/>
<path fill="none" stroke="gray" d="M760,-52C766,-52 772,-58 772,-64"/>
<polyline fill="none" stroke="gray" points="772,-64 772,-1324 "/>
<path fill="none" stroke="gray" d="M772,-1324C772,-1330 766,-1336 760,-1336"/>
<polyline fill="none" stroke="gray" points="760,-1336 28,-1336 "/>
<path fill="none" stroke="gray" d="M28,-1336C22,-1336 16,-1330 16,-1324"/>
<polyline fill="none" stroke="gray" points="16,-1324 16,-64 "/>
<path fill="none" stroke="gray" d="M16,-64C16,-58 22,-52 28,-52"/>
<text text-anchor="middle" x="394" y="-1323.2" font-family="Times New Roman,serif" font-size="11.00" fill="gray">Sdk</text>
</g>
<g id="graph4" class="cluster"><title>cluster_TangoCard\Sdk\Common</title>
<polyline fill="none" stroke="gray" points="567,-1128 717,-1128 "/>
<path fill="none" stroke="gray" d="M717,-1128C723,-1128 729,-1134 729,-1140"/>
<polyline fill="none" stroke="gray" points="729,-1140 729,-1296 "/>
<path fill="none" stroke="gray" d="M729,-1296C729,-1302 723,-1308 717,-1308"/>
<polyline fill="none" stroke="gray" points="717,-1308 567,-1308 "/>
<path fill="none" stroke="gray" d="M567,-1308C561,-1308 555,-1302 555,-1296"/>
<polyline fill="none" stroke="gray" points="555,-1296 555,-1140 "/>
<path fill="none" stroke="gray" d="M555,-1140C555,-1134 561,-1128 567,-1128"/>
<text text-anchor="middle" x="642" y="-1295.2" font-family="Times New Roman,serif" font-size="11.00" fill="gray">Common</text>
</g>
<g id="graph5" class="cluster"><title>cluster_TangoCard\Sdk\Example</title>
<polyline fill="none" stroke="gray" points="540,-994 744,-994 "/>
<path fill="none" stroke="gray" d="M744,-994C750,-994 756,-1000 756,-1006"/>
<polyline fill="none" stroke="gray" points="756,-1006 756,-1108 "/>
<path fill="none" stroke="gray" d="M756,-1108C756,-1114 750,-1120 744,-1120"/>
<polyline fill="none" stroke="gray" points="744,-1120 540,-1120 "/>
<path fill="none" stroke="gray" d="M540,-1120C534,-1120 528,-1114 528,-1108"/>
<polyline fill="none" stroke="gray" points="528,-1108 528,-1006 "/>
<path fill="none" stroke="gray" d="M528,-1006C528,-1000 534,-994 540,-994"/>
<text text-anchor="middle" x="642" y="-1107.2" font-family="Times New Roman,serif" font-size="11.00" fill="gray">Example</text>
</g>
<g id="graph6" class="cluster"><title>cluster_TangoCard\Sdk\Request</title>
<polyline fill="none" stroke="gray" points="291,-860 734,-860 "/>
<path fill="none" stroke="gray" d="M734,-860C740,-860 746,-866 746,-872"/>
<polyline fill="none" stroke="gray" points="746,-872 746,-974 "/>
<path fill="none" stroke="gray" d="M746,-974C746,-980 740,-986 734,-986"/>
<polyline fill="none" stroke="gray" points="734,-986 291,-986 "/>
<path fill="none" stroke="gray" d="M291,-986C285,-986 279,-980 279,-974"/>
<polyline fill="none" stroke="gray" points="279,-974 279,-872 "/>
<path fill="none" stroke="gray" d="M279,-872C279,-866 285,-860 291,-860"/>
<text text-anchor="middle" x="512.5" y="-973.2" font-family="Times New Roman,serif" font-size="11.00" fill="gray">Request</text>
</g>
<g id="graph7" class="cluster"><title>cluster_TangoCard\Sdk\Response</title>
<polyline fill="none" stroke="gray" points="36,-348 752,-348 "/>
<path fill="none" stroke="gray" d="M752,-348C758,-348 764,-354 764,-360"/>
<polyline fill="none" stroke="gray" points="764,-360 764,-840 "/>
<path fill="none" stroke="gray" d="M764,-840C764,-846 758,-852 752,-852"/>
<polyline fill="none" stroke="gray" points="752,-852 36,-852 "/>
<path fill="none" stroke="gray" d="M36,-852C30,-852 24,-846 24,-840"/>
<polyline fill="none" stroke="gray" points="24,-840 24,-360 "/>
<path fill="none" stroke="gray" d="M24,-360C24,-354 30,-348 36,-348"/>
<text text-anchor="middle" x="394" y="-839.2" font-family="Times New Roman,serif" font-size="11.00" fill="gray">Response</text>
</g>
<g id="graph8" class="cluster"><title>cluster_TangoCard\Sdk\Response\Failure</title>
<polyline fill="none" stroke="gray" points="278,-536 744,-536 "/>
<path fill="none" stroke="gray" d="M744,-536C750,-536 756,-542 756,-548"/>
<polyline fill="none" stroke="gray" points="756,-548 756,-812 "/>
<path fill="none" stroke="gray" d="M756,-812C756,-818 750,-824 744,-824"/>
<polyline fill="none" stroke="gray" points="744,-824 278,-824 "/>
<path fill="none" stroke="gray" d="M278,-824C272,-824 266,-818 266,-812"/>
<polyline fill="none" stroke="gray" points="266,-812 266,-548 "/>
<path fill="none" stroke="gray" d="M266,-548C266,-542 272,-536 278,-536"/>
<text text-anchor="middle" x="511" y="-811.2" font-family="Times New Roman,serif" font-size="11.00" fill="gray">Failure</text>
</g>
<g id="graph9" class="cluster"><title>cluster_TangoCard\Sdk\Response\Success</title>
<polyline fill="none" stroke="gray" points="278,-402 738,-402 "/>
<path fill="none" stroke="gray" d="M738,-402C744,-402 750,-408 750,-414"/>
<polyline fill="none" stroke="gray" points="750,-414 750,-516 "/>
<path fill="none" stroke="gray" d="M750,-516C750,-522 744,-528 738,-528"/>
<polyline fill="none" stroke="gray" points="738,-528 278,-528 "/>
<path fill="none" stroke="gray" d="M278,-528C272,-528 266,-522 266,-516"/>
<polyline fill="none" stroke="gray" points="266,-516 266,-414 "/>
<path fill="none" stroke="gray" d="M266,-414C266,-408 272,-402 278,-402"/>
<text text-anchor="middle" x="508" y="-515.2" font-family="Times New Roman,serif" font-size="11.00" fill="gray">Success</text>
</g>
<g id="graph12" class="cluster"><title>cluster_TangoCard\Sdk\Service</title>
<polyline fill="none" stroke="gray" points="553,-160 731,-160 "/>
<path fill="none" stroke="gray" d="M731,-160C737,-160 743,-166 743,-172"/>
<polyline fill="none" stroke="gray" points="743,-172 743,-328 "/>
<path fill="none" stroke="gray" d="M743,-328C743,-334 737,-340 731,-340"/>
<polyline fill="none" stroke="gray" points="731,-340 553,-340 "/>
<path fill="none" stroke="gray" d="M553,-340C547,-340 541,-334 541,-328"/>
<polyline fill="none" stroke="gray" points="541,-328 541,-172 "/>
<path fill="none" stroke="gray" d="M541,-172C541,-166 547,-160 553,-160"/>
<text text-anchor="middle" x="642" y="-327.2" font-family="Times New Roman,serif" font-size="11.00" fill="gray">Service</text>
</g>
<g id="graph22" class="cluster"><title>cluster_global</title>
<polyline fill="none" stroke="gray" points="543,-1372 741,-1372 "/>
<path fill="none" stroke="gray" d="M741,-1372C747,-1372 753,-1378 753,-1384"/>
<polyline fill="none" stroke="gray" points="753,-1384 753,-1486 "/>
<path fill="none" stroke="gray" d="M753,-1486C753,-1492 747,-1498 741,-1498"/>
<polyline fill="none" stroke="gray" points="741,-1498 543,-1498 "/>
<path fill="none" stroke="gray" d="M543,-1498C537,-1498 531,-1492 531,-1486"/>
<polyline fill="none" stroke="gray" points="531,-1486 531,-1384 "/>
<path fill="none" stroke="gray" d="M531,-1384C531,-1378 537,-1372 543,-1372"/>
<text text-anchor="middle" x="642" y="-1485.2" font-family="Times New Roman,serif" font-size="11.00" fill="gray">global</text>
</g>
<!-- \\TangoCard\\Sdk\\Common\\Helper -->
<g id="node4" class="node"><title>\\TangoCard\\Sdk\\Common\\Helper</title>
<a xlink:href="lib.TangoCard.Sdk.Common.Helper.html" xlink:title="Helper" target="_parent">
<polygon fill="none" stroke="black" points="670.5,-1280 613.5,-1280 613.5,-1244 670.5,-1244 670.5,-1280"/>
<text text-anchor="middle" x="642" y="-1259.2" font-family="Courier,monospace" font-size="11.00">Helper</text>
</a>
</g>
<!-- \\TangoCard\\Sdk\\Common\\SdkConfig -->
<g id="node5" class="node"><title>\\TangoCard\\Sdk\\Common\\SdkConfig</title>
<a xlink:href="lib.TangoCard.Sdk.Common.SdkConfig.html" xlink:title="SdkConfig" target="_parent">
<polygon fill="none" stroke="black" points="680.5,-1226 603.5,-1226 603.5,-1190 680.5,-1190 680.5,-1226"/>
<text text-anchor="middle" x="642" y="-1205.2" font-family="Courier,monospace" font-size="11.00">SdkConfig</text>
</a>
</g>
<!-- \\TangoCard\\Sdk\\Common\\TangoCardSdkException -->
<g id="node6" class="node"><title>\\TangoCard\\Sdk\\Common\\TangoCardSdkException</title>
<a xlink:href="lib.TangoCard.Sdk.Common.TangoCardSdkException.html" xlink:title="TangoCardSdkException" target="_parent">
<polygon fill="none" stroke="black" points="721,-1172 563,-1172 563,-1136 721,-1136 721,-1172"/>
<text text-anchor="middle" x="642" y="-1151.2" font-family="Courier,monospace" font-size="11.00">TangoCardSdkException</text>
</a>
</g>
<!-- \\Exception -->
<g id="node49" class="node"><title>\\Exception</title>
<ellipse fill="none" stroke="black" cx="333" cy="-18" rx="50.0912" ry="18"/>
<text text-anchor="middle" x="333" y="-14.3" font-family="Times New Roman,serif" font-size="14.00" fill="gray">\Exception</text>
</g>
<!-- \\TangoCard\\Sdk\\Common\\TangoCardSdkException&#45;&gt;\\Exception -->
<g id="edge23" class="edge"><title>\\TangoCard\\Sdk\\Common\\TangoCardSdkException&#45;&gt;\\Exception</title>
<path fill="none" stroke="black" d="M562.927,-1146.62C549.564,-1141.94 537.084,-1134.79 528,-1124 423.711,-1000.09 497.568,-556.442 464,-398 435.115,-261.663 372.089,-106.578 345.841,-45.1282"/>
<polygon fill="none" stroke="black" points="348.977,-43.56 341.812,-35.7554 342.546,-46.3247 348.977,-43.56"/>
</g>
<!-- \\TangoCard\\Sdk\\Example\\TangoCardSdk_Failures_Example -->
<g id="node8" class="node"><title>\\TangoCard\\Sdk\\Example\\TangoCardSdk_Failures_Example</title>
<a xlink:href="examples.TangoCardSdk_Failures_Example.html" xlink:title="TangoCardSdk_Failures_Example" target="_parent">
<polygon fill="none" stroke="black" points="748,-1092 536,-1092 536,-1056 748,-1056 748,-1092"/>
<text text-anchor="middle" x="642" y="-1071.2" font-family="Courier,monospace" font-size="11.00">TangoCardSdk_Failures_Example</text>
</a>
</g>
<!-- \\TangoCard\\Sdk\\Example\\TangoCardSdk_Store_Example -->
<g id="node9" class="node"><title>\\TangoCard\\Sdk\\Example\\TangoCardSdk_Store_Example</title>
<a xlink:href="examples.TangoCardSdk_Store_Example.html" xlink:title="TangoCardSdk_Store_Example" target="_parent">
<polygon fill="none" stroke="black" points="738,-1038 546,-1038 546,-1002 738,-1002 738,-1038"/>
<text text-anchor="middle" x="642" y="-1017.2" font-family="Courier,monospace" font-size="11.00">TangoCardSdk_Store_Example</text>
</a>
</g>
<!-- \\TangoCard\\Sdk\\Request\\BaseRequest -->
<g id="node11" class="node"><title>\\TangoCard\\Sdk\\Request\\BaseRequest</title>
<a xlink:href="lib.TangoCard.Sdk.Request.BaseRequest.html" xlink:title="BaseRequest" target="_parent">
<polygon fill="none" stroke="black" points="378.5,-931 287.5,-931 287.5,-895 378.5,-895 378.5,-931"/>
<text text-anchor="middle" x="333" y="-910.2" font-family="Courier,monospace" font-size="11.00">BaseRequest</text>
</a>
</g>
<!-- \\TangoCard\\Sdk\\Request\\GetAvailableBalanceRequest -->
<g id="node12" class="node"><title>\\TangoCard\\Sdk\\Request\\GetAvailableBalanceRequest</title>
<a xlink:href="lib.TangoCard.Sdk.Request.GetAvailableBalanceRequest.html" xlink:title="GetAvailableBalanceRequest" target="_parent">
<polygon fill="none" stroke="black" points="738,-958 546,-958 546,-922 738,-922 738,-958"/>
<text text-anchor="middle" x="642" y="-937.2" font-family="Courier,monospace" font-size="11.00">GetAvailableBalanceRequest</text>
</a>
</g>
<!-- \\TangoCard\\Sdk\\Request\\GetAvailableBalanceRequest&#45;&gt;\\TangoCard\\Sdk\\Request\\BaseRequest -->
<g id="edge25" class="edge"><title>\\TangoCard\\Sdk\\Request\\GetAvailableBalanceRequest&#45;&gt;\\TangoCard\\Sdk\\Request\\BaseRequest</title>
<path fill="none" stroke="black" d="M545.966,-931.642C494.285,-927.097 432.21,-921.637 388.635,-917.805"/>
<polygon fill="none" stroke="black" points="388.795,-914.306 378.527,-916.916 388.182,-921.279 388.795,-914.306"/>
</g>
<!-- \\TangoCard\\Sdk\\Request\\PurchaseCardRequest -->
<g id="node13" class="node"><title>\\TangoCard\\Sdk\\Request\\PurchaseCardRequest</title>
<a xlink:href="lib.TangoCard.Sdk.Request.PurchaseCardRequest.html" xlink:title="PurchaseCardRequest" target="_parent">
<polygon fill="none" stroke="black" points="714.5,-904 569.5,-904 569.5,-868 714.5,-868 714.5,-904"/>
<text text-anchor="middle" x="642" y="-883.2" font-family="Courier,monospace" font-size="11.00">PurchaseCardRequest</text>
</a>
</g>
<!-- \\TangoCard\\Sdk\\Request\\PurchaseCardRequest&#45;&gt;\\TangoCard\\Sdk\\Request\\BaseRequest -->
<g id="edge27" class="edge"><title>\\TangoCard\\Sdk\\Request\\PurchaseCardRequest&#45;&gt;\\TangoCard\\Sdk\\Request\\BaseRequest</title>
<path fill="none" stroke="black" d="M569.41,-892.296C514.212,-897.151 439.029,-903.763 388.618,-908.196"/>
<polygon fill="none" stroke="black" points="388.222,-904.718 378.567,-909.08 388.835,-911.691 388.222,-904.718"/>
</g>
<!-- \\TangoCard\\Sdk\\Response\\Failure\\FailureResponse -->
<g id="node16" class="node"><title>\\TangoCard\\Sdk\\Response\\Failure\\FailureResponse</title>
<a xlink:href="lib.TangoCard.Sdk.Response.Failure.FailureResponse.html" xlink:title="FailureResponse" target="_parent">
<polygon fill="none" stroke="black" points="392,-661 274,-661 274,-625 392,-625 392,-661"/>
<text text-anchor="middle" x="333" y="-640.2" font-family="Courier,monospace" font-size="11.00">FailureResponse</text>
</a>
</g>
<!-- \\TangoCard\\Sdk\\Response\\BaseResponse -->
<g id="node26" class="node"><title>\\TangoCard\\Sdk\\Response\\BaseResponse</title>
<a xlink:href="lib.TangoCard.Sdk.Response.BaseResponse.html" xlink:title="BaseResponse" target="_parent">
<polygon fill="none" stroke="black" points="130,-580 32,-580 32,-544 130,-544 130,-580"/>
<text text-anchor="middle" x="81" y="-559.2" font-family="Courier,monospace" font-size="11.00">BaseResponse</text>
</a>
</g>
<!-- \\TangoCard\\Sdk\\Response\\Failure\\FailureResponse&#45;&gt;\\TangoCard\\Sdk\\Response\\BaseResponse -->
<g id="edge29" class="edge"><title>\\TangoCard\\Sdk\\Response\\Failure\\FailureResponse&#45;&gt;\\TangoCard\\Sdk\\Response\\BaseResponse</title>
<path fill="none" stroke="black" d="M276.206,-624.923C235.572,-611.757 180.69,-593.976 139.634,-580.674"/>
<polygon fill="none" stroke="black" points="140.633,-577.318 130.041,-577.565 138.476,-583.977 140.633,-577.318"/>
</g>
<!-- \\TangoCard\\Sdk\\Response\\Failure\\InsufficientFundsResponse -->
<g id="node17" class="node"><title>\\TangoCard\\Sdk\\Response\\Failure\\InsufficientFundsResponse</title>
<a xlink:href="lib.TangoCard.Sdk.Response.Failure.InsufficientFundsResponse.html" xlink:title="InsufficientFundsResponse" target="_parent">
<polygon fill="none" stroke="black" points="734.5,-796 549.5,-796 549.5,-760 734.5,-760 734.5,-796"/>
<text text-anchor="middle" x="642" y="-775.2" font-family="Courier,monospace" font-size="11.00">InsufficientFundsResponse</text>
</a>
</g>
<!-- \\TangoCard\\Sdk\\Response\\Failure\\InsufficientFundsResponse&#45;&gt;\\TangoCard\\Sdk\\Response\\Failure\\FailureResponse -->
<g id="edge31" class="edge"><title>\\TangoCard\\Sdk\\Response\\Failure\\InsufficientFundsResponse&#45;&gt;\\TangoCard\\Sdk\\Response\\Failure\\FailureResponse</title>
<path fill="none" stroke="black" d="M554.485,-759.92C545.435,-757.262 536.458,-754.293 528,-751 469.636,-728.278 407.212,-690.896 369.39,-666.614"/>
<polygon fill="none" stroke="black" points="371.08,-663.538 360.783,-661.041 367.275,-669.414 371.08,-663.538"/>
</g>
<!-- \\TangoCard\\Sdk\\Response\\Failure\\InsufficientInventoryResponse -->
<g id="node18" class="node"><title>\\TangoCard\\Sdk\\Response\\Failure\\InsufficientInventoryResponse</title>
<a xlink:href="lib.TangoCard.Sdk.Response.Failure.InsufficientInventoryResponse.html" xlink:title="InsufficientInventoryResponse" target="_parent">
<polygon fill="none" stroke="black" points="748,-742 536,-742 536,-706 748,-706 748,-742"/>
<text text-anchor="middle" x="642" y="-721.2" font-family="Courier,monospace" font-size="11.00">InsufficientInventoryResponse</text>
</a>
</g>
<!-- \\TangoCard\\Sdk\\Response\\Failure\\InsufficientInventoryResponse&#45;&gt;\\TangoCard\\Sdk\\Response\\Failure\\FailureResponse -->
<g id="edge33" class="edge"><title>\\TangoCard\\Sdk\\Response\\Failure\\InsufficientInventoryResponse&#45;&gt;\\TangoCard\\Sdk\\Response\\Failure\\FailureResponse</title>
<path fill="none" stroke="black" d="M563.708,-705.933C551.735,-703.019 539.522,-699.979 528,-697 486.054,-686.155 439.257,-673.155 402.135,-662.629"/>
<polygon fill="none" stroke="black" points="403.002,-659.236 392.426,-659.869 401.088,-665.97 403.002,-659.236"/>
</g>
<!-- \\TangoCard\\Sdk\\Response\\Failure\\InvalidCredentialsResponse -->
<g id="node19" class="node"><title>\\TangoCard\\Sdk\\Response\\Failure\\InvalidCredentialsResponse</title>
<a xlink:href="lib.TangoCard.Sdk.Response.Failure.InvalidCredentialsResponse.html" xlink:title="InvalidCredentialsResponse" target="_parent">
<polygon fill="none" stroke="black" points="738,-688 546,-688 546,-652 738,-652 738,-688"/>
<text text-anchor="middle" x="642" y="-667.2" font-family="Courier,monospace" font-size="11.00">InvalidCredentialsResponse</text>
</a>
</g>
<!-- \\TangoCard\\Sdk\\Response\\Failure\\InvalidCredentialsResponse&#45;&gt;\\TangoCard\\Sdk\\Response\\Failure\\FailureResponse -->
<g id="edge35" class="edge"><title>\\TangoCard\\Sdk\\Response\\Failure\\InvalidCredentialsResponse&#45;&gt;\\TangoCard\\Sdk\\Response\\Failure\\FailureResponse</title>
<path fill="none" stroke="black" d="M545.966,-661.642C499.6,-657.564 444.868,-652.751 402.635,-649.036"/>
<polygon fill="none" stroke="black" points="402.723,-645.531 392.455,-648.141 402.11,-652.504 402.723,-645.531"/>
</g>
<!-- \\TangoCard\\Sdk\\Response\\Failure\\InvalidInputResponse -->
<g id="node20" class="node"><title>\\TangoCard\\Sdk\\Response\\Failure\\InvalidInputResponse</title>
<a xlink:href="lib.TangoCard.Sdk.Response.Failure.InvalidInputResponse.html" xlink:title="InvalidInputResponse" target="_parent">
<polygon fill="none" stroke="black" points="718,-634 566,-634 566,-598 718,-598 718,-634"/>
<text text-anchor="middle" x="642" y="-613.2" font-family="Courier,monospace" font-size="11.00">InvalidInputResponse</text>
</a>
</g>
<!-- \\TangoCard\\Sdk\\Response\\Failure\\InvalidInputResponse&#45;&gt;\\TangoCard\\Sdk\\Response\\Failure\\FailureResponse -->
<g id="edge37" class="edge"><title>\\TangoCard\\Sdk\\Response\\Failure\\InvalidInputResponse&#45;&gt;\\TangoCard\\Sdk\\Response\\Failure\\FailureResponse</title>
<path fill="none" stroke="black" d="M565.899,-622.605C516.016,-626.992 451.033,-632.707 402.552,-636.971"/>
<polygon fill="none" stroke="black" points="402.123,-633.495 392.468,-637.858 402.737,-640.468 402.123,-633.495"/>
</g>
<!-- \\TangoCard\\Sdk\\Response\\Failure\\SystemErrorResponse -->
<g id="node21" class="node"><title>\\TangoCard\\Sdk\\Response\\Failure\\SystemErrorResponse</title>
<a xlink:href="lib.TangoCard.Sdk.Response.Failure.SystemErrorResponse.html" xlink:title="SystemErrorResponse" target="_parent">
<polygon fill="none" stroke="black" points="714.5,-580 569.5,-580 569.5,-544 714.5,-544 714.5,-580"/>
<text text-anchor="middle" x="642" y="-559.2" font-family="Courier,monospace" font-size="11.00">SystemErrorResponse</text>
</a>
</g>
<!-- \\TangoCard\\Sdk\\Response\\Failure\\SystemErrorResponse&#45;&gt;\\TangoCard\\Sdk\\Response\\Failure\\FailureResponse -->
<g id="edge39" class="edge"><title>\\TangoCard\\Sdk\\Response\\Failure\\SystemErrorResponse&#45;&gt;\\TangoCard\\Sdk\\Response\\Failure\\FailureResponse</title>
<path fill="none" stroke="black" d="M569.47,-578.669C555.685,-582.001 541.377,-585.541 528,-589 486.054,-599.845 439.257,-612.845 402.135,-623.371"/>
<polygon fill="none" stroke="black" points="401.088,-620.03 392.426,-626.131 403.002,-626.764 401.088,-620.03"/>
</g>
<!-- \\TangoCard\\Sdk\\Response\\Success\\GetAvailableBalanceResponse -->
<g id="node23" class="node"><title>\\TangoCard\\Sdk\\Response\\Success\\GetAvailableBalanceResponse</title>
<a xlink:href="lib.TangoCard.Sdk.Response.Success.GetAvailableBalanceResponse.html" xlink:title="GetAvailableBalanceResponse" target="_parent">
<polygon fill="none" stroke="black" points="741.5,-500 542.5,-500 542.5,-464 741.5,-464 741.5,-500"/>
<text text-anchor="middle" x="642" y="-479.2" font-family="Courier,monospace" font-size="11.00">GetAvailableBalanceResponse</text>
</a>
</g>
<!-- \\TangoCard\\Sdk\\Response\\Success\\SuccessResponse -->
<g id="node25" class="node"><title>\\TangoCard\\Sdk\\Response\\Success\\SuccessResponse</title>
<a xlink:href="lib.TangoCard.Sdk.Response.Success.SuccessResponse.html" xlink:title="SuccessResponse" target="_parent">
<polygon fill="none" stroke="black" points="392,-500 274,-500 274,-464 392,-464 392,-500"/>
<text text-anchor="middle" x="333" y="-479.2" font-family="Courier,monospace" font-size="11.00">SuccessResponse</text>
</a>
</g>
<!-- \\TangoCard\\Sdk\\Response\\Success\\GetAvailableBalanceResponse&#45;&gt;\\TangoCard\\Sdk\\Response\\Success\\SuccessResponse -->
<g id="edge41" class="edge"><title>\\TangoCard\\Sdk\\Response\\Success\\GetAvailableBalanceResponse&#45;&gt;\\TangoCard\\Sdk\\Response\\Success\\SuccessResponse</title>
<path fill="none" stroke="black" d="M542.173,-482C496.605,-482 443.642,-482 402.541,-482"/>
<polygon fill="none" stroke="black" points="402.36,-478.5 392.36,-482 402.359,-485.5 402.36,-478.5"/>
</g>
<!-- \\TangoCard\\Sdk\\Response\\Success\\PurchaseCardResponse -->
<g id="node24" class="node"><title>\\TangoCard\\Sdk\\Response\\Success\\PurchaseCardResponse</title>
<a xlink:href="lib.TangoCard.Sdk.Response.Success.PurchaseCardResponse.html" xlink:title="PurchaseCardResponse" target="_parent">
<polygon fill="none" stroke="black" points="718,-446 566,-446 566,-410 718,-410 718,-446"/>
<text text-anchor="middle" x="642" y="-425.2" font-family="Courier,monospace" font-size="11.00">PurchaseCardResponse</text>
</a>
</g>
<!-- \\TangoCard\\Sdk\\Response\\Success\\PurchaseCardResponse&#45;&gt;\\TangoCard\\Sdk\\Response\\Success\\SuccessResponse -->
<g id="edge43" class="edge"><title>\\TangoCard\\Sdk\\Response\\Success\\PurchaseCardResponse&#45;&gt;\\TangoCard\\Sdk\\Response\\Success\\SuccessResponse</title>
<path fill="none" stroke="black" d="M565.671,-441.811C534.253,-447.521 497.374,-454.159 464,-460 443.94,-463.511 422.121,-467.238 402.19,-470.608"/>
<polygon fill="none" stroke="black" points="401.544,-467.167 392.266,-472.283 402.709,-474.07 401.544,-467.167"/>
</g>
<!-- \\TangoCard\\Sdk\\Response\\Success\\SuccessResponse&#45;&gt;\\TangoCard\\Sdk\\Response\\BaseResponse -->
<g id="edge45" class="edge"><title>\\TangoCard\\Sdk\\Response\\Success\\SuccessResponse&#45;&gt;\\TangoCard\\Sdk\\Response\\BaseResponse</title>
<path fill="none" stroke="black" d="M275.583,-500.053C235.053,-513.023 180.589,-530.452 139.755,-543.518"/>
<polygon fill="none" stroke="black" points="138.669,-540.191 130.212,-546.572 140.803,-546.858 138.669,-540.191"/>
</g>
<!-- \\TangoCard\\Sdk\\Response\\ServiceResponseEnum -->
<g id="node27" class="node"><title>\\TangoCard\\Sdk\\Response\\ServiceResponseEnum</title>
<a xlink:href="lib.TangoCard.Sdk.Response.ServiceResponseEnum.html" xlink:title="ServiceResponseEnum" target="_parent">
<polygon fill="none" stroke="black" points="714.5,-392 569.5,-392 569.5,-356 714.5,-356 714.5,-392"/>
<text text-anchor="middle" x="642" y="-371.2" font-family="Courier,monospace" font-size="11.00">ServiceResponseEnum</text>
</a>
</g>
<!-- \\TangoCard\\Sdk\\Service\\ServiceProxy -->
<g id="node31" class="node"><title>\\TangoCard\\Sdk\\Service\\ServiceProxy</title>
<a xlink:href="lib.TangoCard.Sdk.Service.ServiceProxy.html" xlink:title="ServiceProxy" target="_parent">
<polygon fill="none" stroke="black" points="691,-312 593,-312 593,-276 691,-276 691,-312"/>
<text text-anchor="middle" x="642" y="-291.2" font-family="Courier,monospace" font-size="11.00">ServiceProxy</text>
</a>
</g>
<!-- \\TangoCard\\Sdk\\Service\\TangoCardServiceApiEnum -->
<g id="node32" class="node"><title>\\TangoCard\\Sdk\\Service\\TangoCardServiceApiEnum</title>
<a xlink:href="lib.TangoCard.Sdk.Service.TangoCardServiceApiEnum.html" xlink:title="TangoCardServiceApiEnum" target="_parent">
<polygon fill="none" stroke="black" points="728,-258 556,-258 556,-222 728,-222 728,-258"/>
<text text-anchor="middle" x="642" y="-237.2" font-family="Courier,monospace" font-size="11.00">TangoCardServiceApiEnum</text>
</a>
</g>
<!-- \\TangoCard\\Sdk\\Service\\TangoCardServiceException -->
<g id="node33" class="node"><title>\\TangoCard\\Sdk\\Service\\TangoCardServiceException</title>
<a xlink:href="lib.TangoCard.Sdk.Service.TangoCardServiceException.html" xlink:title="TangoCardServiceException" target="_parent">
<polygon fill="none" stroke="black" points="734.5,-204 549.5,-204 549.5,-168 734.5,-168 734.5,-204"/>
<text text-anchor="middle" x="642" y="-183.2" font-family="Courier,monospace" font-size="11.00">TangoCardServiceException</text>
</a>
</g>
<!-- \\TangoCard\\Sdk\\Service\\TangoCardServiceException&#45;&gt;\\Exception -->
<g id="edge47" class="edge"><title>\\TangoCard\\Sdk\\Service\\TangoCardServiceException&#45;&gt;\\Exception</title>
<path fill="none" stroke="black" d="M549.232,-171.847C541.92,-169.604 534.756,-167.007 528,-164 459.436,-133.487 392.41,-74.8014 357.943,-41.8863"/>
<polygon fill="none" stroke="black" points="360.319,-39.3148 350.695,-34.8837 355.455,-44.3491 360.319,-39.3148"/>
</g>
<!-- \\TangoCard\\Sdk\\TangoCardServiceApi -->
<g id="node34" class="node"><title>\\TangoCard\\Sdk\\TangoCardServiceApi</title>
<a xlink:href="lib.TangoCard.Sdk.TangoCardServiceApi.html" xlink:title="TangoCardServiceApi" target="_parent">
<polygon fill="none" stroke="black" points="714.5,-150 569.5,-150 569.5,-114 714.5,-114 714.5,-150"/>
<text text-anchor="middle" x="642" y="-129.2" font-family="Courier,monospace" font-size="11.00">TangoCardServiceApi</text>
</a>
</g>
<!-- \\TangoCard\\Sdk\\TangoCardSdkAutoloader -->
<g id="node35" class="node"><title>\\TangoCard\\Sdk\\TangoCardSdkAutoloader</title>
<a xlink:href="lib.TangoCardSdkAutoloader.html" xlink:title="TangoCardSdkAutoloader" target="_parent">
<polygon fill="none" stroke="black" points="724.5,-96 559.5,-96 559.5,-60 724.5,-60 724.5,-96"/>
<text text-anchor="middle" x="642" y="-75.2" font-family="Courier,monospace" font-size="11.00">TangoCardSdkAutoloader</text>
</a>
</g>
<!-- \\UnitTest_GetAvailableBalance -->
<g id="node46" class="node"><title>\\UnitTest_GetAvailableBalance</title>
<a xlink:href="unittests.UnitTest_GetAvailableBalance.html" xlink:title="UnitTest_GetAvailableBalance" target="_parent">
<polygon fill="none" stroke="black" points="745,-1470 539,-1470 539,-1434 745,-1434 745,-1470"/>
<text text-anchor="middle" x="642" y="-1449.2" font-family="Courier,monospace" font-size="11.00">UnitTest_GetAvailableBalance</text>
</a>
</g>
<!-- \\PHPUnit_Framework_TestCase -->
<g id="node63" class="node"><title>\\PHPUnit_Framework_TestCase</title>
<ellipse fill="none" stroke="black" cx="333" cy="-1425" rx="130.777" ry="18"/>
<text text-anchor="middle" x="333" y="-1421.3" font-family="Times New Roman,serif" font-size="14.00" fill="gray">\PHPUnit_Framework_TestCase</text>
</g>
<!-- \\UnitTest_GetAvailableBalance&#45;&gt;\\PHPUnit_Framework_TestCase -->
<g id="edge49" class="edge"><title>\\UnitTest_GetAvailableBalance&#45;&gt;\\PHPUnit_Framework_TestCase</title>
<path fill="none" stroke="black" d="M538.773,-1443.01C511.51,-1440.61 481.808,-1438 453.698,-1435.53"/>
<polygon fill="none" stroke="black" points="453.689,-1432.01 443.421,-1434.62 453.075,-1438.99 453.689,-1432.01"/>
</g>
<!-- \\UnitTest_PurchaseCard -->
<g id="node47" class="node"><title>\\UnitTest_PurchaseCard</title>
<a xlink:href="unittests.UnitTest_PurchaseCard.html" xlink:title="UnitTest_PurchaseCard" target="_parent">
<polygon fill="none" stroke="black" points="721,-1416 563,-1416 563,-1380 721,-1380 721,-1416"/>
<text text-anchor="middle" x="642" y="-1395.2" font-family="Courier,monospace" font-size="11.00">UnitTest_PurchaseCard</text>
</a>
</g>
<!-- \\UnitTest_PurchaseCard&#45;&gt;\\PHPUnit_Framework_TestCase -->
<g id="edge51" class="edge"><title>\\UnitTest_PurchaseCard&#45;&gt;\\PHPUnit_Framework_TestCase</title>
<path fill="none" stroke="black" d="M562.737,-1404.88C529.692,-1407.79 490.467,-1411.24 453.913,-1414.45"/>
<polygon fill="none" stroke="black" points="453.337,-1410.99 443.682,-1415.35 453.95,-1417.96 453.337,-1410.99"/>
</g>
</g>
</svg>
